<?xml version="1.0" encoding="UTF-8" standalone="no"?>
<!-- Created with Inkscape (http://www.inkscape.org/) -->

<svg
   width="512"
   height="512"
   viewBox="0 0 512 512"
   version="1.1"
   id="svg1"
   inkscape:version="1.4.3 (1:1.4.3+202512261034+0d15f75042)"
   sodipodi:docname="icon.svg"
   xmlns:inkscape="http://www.inkscape.org/namespaces/inkscape"
   xmlns:sodipodi="http://sodipodi.sourceforge.net/DTD/sodipodi-0.dtd"
   xmlns:xlink="http://www.w3.org/1999/xlink"
   xmlns="http://www.w3.org/2000/svg"
   xmlns:svg="http://www.w3.org/2000/svg">
  <sodipodi:namedview
     id="namedview1"
     pagecolor="#505050"
     bordercolor="#ffffff"
     borderopacity="1"
     inkscape:showpageshadow="0"
     inkscape:pageopacity="0"
     inkscape:pagecheckerboard="1"
     inkscape:deskcolor="#505050"
     inkscape:document-units="px"
     inkscape:zoom="1.4142136"
     inkscape:cx="176.42314"
     inkscape:cy="272.23611"
     inkscape:window-width="1920"
     inkscape:window-height="1019"
     inkscape:window-x="1200"
     inkscape:window-y="425"
     inkscape:window-maximized="1"
     inkscape:current-layer="g4" />
  <defs
     id="defs1" />
  <g
     inkscape:label="Layer 1"
     inkscape:groupmode="layer"
     id="layer1">
    <rect
       style="fill:#f9f9f9;fill-opacity:0.50298;fill-rule:evenodd;stroke:#000000;stroke-width:10;stroke-linecap:round;stroke-dasharray:none"
       id="rect1"
       width="316.20074"
       height="316.20074"
       x="97.899628"
       y="97.899628"
       ry="2.5313163"
       inkscape:export-filename="/home/sr101090/favicon_16.png"
       inkscape:export-xdpi="3"
       inkscape:export-ydpi="3" />
    <g
       id="g14"
       style="stroke-width:5;stroke-dasharray:none;fill:#333333;stroke:#1a1a1a">
      <path
         style="fill:#333333;stroke:#1a1a1a;stroke-width:5;stroke-linecap:butt;stroke-linejoin:miter;stroke-opacity:1;stroke-dasharray:none"
         d="M 41.012193,41.012193 238.29498,84.852813"
         id="path6" />
      <path
         style="fill:#333333;stroke:#1a1a1a;stroke-width:5;stroke-linecap:butt;stroke-linejoin:miter;stroke-opacity:1;stroke-dasharray:none"
         d="M 362.74578,151.32085 257.38687,255.97265"
         id="path7" />
      <path
         style="fill:#333333;stroke:#1a1a1a;stroke-width:5;stroke-linecap:butt;stroke-linejoin:miter;stroke-opacity:1;stroke-dasharray:none"
         d="M 237.58788,84.852813 255.26555,253.85133"
         id="path8" />
      <path
         style="fill:#333333;stroke:#1a1a1a;stroke-width:5;stroke-linecap:butt;stroke-linejoin:miter;stroke-opacity:1;stroke-dasharray:none"
         d="m 135.05739,170.41273 119.50105,84.85282"
         id="path9" />
      <path
         style="fill:#333333;stroke:#1a1a1a;stroke-width:5;stroke-linecap:butt;stroke-linejoin:miter;stroke-opacity:1;stroke-dasharray:none"
         d="M 150.61374,359.91735 253.85133,255.97265"
         id="path10" />
      <path
         style="fill:#333333;stroke:#1a1a1a;stroke-width:5;stroke-linecap:butt;stroke-linejoin:miter;stroke-opacity:1;stroke-dasharray:none"
         d="M 338.70415,451.13412 255.26555,258.09397"
         id="path11" />
      <path
         style="fill:#333333;stroke:#1a1a1a;stroke-width:5;stroke-linecap:butt;stroke-linejoin:miter;stroke-opacity:1;stroke-dasharray:none"
         d="M 461.74073,323.8549 337.99704,449.71991"
         id="path12" />
      <path
         style="fill:#333333;stroke:#1a1a1a;stroke-width:5;stroke-linecap:butt;stroke-linejoin:miter;stroke-opacity:1;stroke-dasharray:none"
         d="M 41.012193,41.012193 135.05739,171.82695"
         id="path13" />
      <path
         style="fill:#333333;stroke:#1a1a1a;stroke-width:5;stroke-linecap:butt;stroke-linejoin:miter;stroke-opacity:1;stroke-dasharray:none"
         d="M 461.03362,323.8549 362.74578,152.73506"
         id="path14" />
    </g>
    <g
       id="g15"
       style="fill:#e6e6e6">
      <path
         style="fill:#e6e6e6;fill-rule:evenodd;stroke:#6ca957;stroke-width:5.91914;stroke-linecap:round;stroke-dasharray:none;stroke-opacity:1"
         id="path1"
         sodipodi:type="arc"
         sodipodi:cx="135.23341"
         sodipodi:cy="171.71497"
         sodipodi:rx="29.940149"
         sodipodi:ry="29.940149"
         sodipodi:start="1.017258"
         sodipodi:end="1.0159081"
         sodipodi:open="true"
         sodipodi:arc-type="arc"
         d="m 150.97296,197.18415 a 29.940149,29.940149 0 0 1 -41.20341,-9.72104 29.940149,29.940149 0 0 1 9.70713,-41.20669 29.940149,29.940149 0 0 1 41.20996,9.69322 29.940149,29.940149 0 0 1 -9.67931,41.21324" />
      <path
         style="fill:#e6e6e6;fill-rule:evenodd;stroke:#a99157;stroke-width:11.183;stroke-linecap:round;stroke-dasharray:none;stroke-opacity:1"
         id="path1-3"
         sodipodi:type="arc"
         sodipodi:cx="239.33174"
         sodipodi:cy="84.599464"
         sodipodi:rx="56.565895"
         sodipodi:ry="56.565895"
         sodipodi:start="1.017258"
         sodipodi:end="1.0159081"
         sodipodi:open="true"
         sodipodi:arc-type="arc"
         d="m 269.06846,132.71836 a 56.565895,56.565895 0 0 1 -77.84558,-18.36594 56.565895,56.565895 0 0 1 18.33967,-77.85177 56.565895,56.565895 0 0 1 77.85796,18.313396 56.565895,56.565895 0 0 1 -18.28712,77.864124" />
      <path
         style="fill:#e6e6e6;fill-rule:evenodd;stroke:#a96f57;stroke-width:9.202;stroke-linecap:round;stroke-dasharray:none;stroke-opacity:1"
         id="path1-1"
         sodipodi:type="arc"
         sodipodi:cx="460.87024"
         sodipodi:cy="325.81815"
         sodipodi:rx="46.545456"
         sodipodi:ry="46.545456"
         sodipodi:start="1.017258"
         sodipodi:end="1.0159081"
         sodipodi:open="true"
         sodipodi:arc-type="arc"
         d="m 485.33921,365.41296 a 46.545456,46.545456 0 0 1 -64.05552,-15.11249 46.545456,46.545456 0 0 1 15.09086,-64.06061 46.545456,46.545456 0 0 1 64.06571,15.06924 46.545456,46.545456 0 0 1 -15.04763,64.07079" />
      <path
         style="fill:#e6e6e6;fill-rule:evenodd;stroke:#a97b57;stroke-width:11.1264;stroke-linecap:round;stroke-dasharray:none;stroke-opacity:1"
         id="path1-36"
         sodipodi:type="arc"
         sodipodi:cx="340.28506"
         sodipodi:cy="450.17728"
         sodipodi:rx="56.279594"
         sodipodi:ry="56.279594"
         sodipodi:start="1.017258"
         sodipodi:end="1.0159081"
         sodipodi:open="true"
         sodipodi:arc-type="arc"
         d="m 369.87127,498.05263 a 56.279594,56.279594 0 0 1 -77.45157,-18.27299 56.279594,56.279594 0 0 1 18.24685,-77.45773 56.279594,56.279594 0 0 1 77.46388,18.2207 56.279594,56.279594 0 0 1 -18.19456,77.47003" />
      <path
         style="fill:#e6e6e6;fill-rule:evenodd;stroke:#6ca957;stroke-width:7.95678;stroke-linecap:round;stroke-dasharray:none;stroke-opacity:1"
         id="path1-18"
         sodipodi:type="arc"
         sodipodi:cx="152.21623"
         sodipodi:cy="359.78375"
         sodipodi:rx="40.246891"
         sodipodi:ry="40.246891"
         sodipodi:start="1.017258"
         sodipodi:end="1.0159081"
         sodipodi:open="true"
         sodipodi:arc-type="arc"
         d="m 173.37404,394.02057 a 40.246891,40.246891 0 0 1 -55.38748,-13.06746 40.246891,40.246891 0 0 1 13.04876,-55.39188 40.246891,40.246891 0 0 1 55.39629,13.03006 40.246891,40.246891 0 0 1 -13.01137,55.40068" />
      <path
         style="fill:#e6e6e6;fill-rule:evenodd;stroke:#6ca957;stroke-width:6.93796;stroke-linecap:round;stroke-dasharray:none;stroke-opacity:1"
         id="path1-2"
         sodipodi:type="arc"
         sodipodi:cx="361.67078"
         sodipodi:cy="150.95822"
         sodipodi:rx="35.093521"
         sodipodi:ry="35.093521"
         sodipodi:start="1.017258"
         sodipodi:end="1.0159081"
         sodipodi:open="true"
         sodipodi:arc-type="arc"
         d="m 380.11946,180.81122 a 35.093521,35.093521 0 0 1 -48.29545,-11.39424 35.093521,35.093521 0 0 1 11.37794,-48.2993 35.093521,35.093521 0 0 1 48.30313,11.36165 35.093521,35.093521 0 0 1 -11.34534,48.30696" />
      <path
         style="fill:#e6e6e6;fill-rule:evenodd;stroke:#ba4646;stroke-width:7.44737;stroke-linecap:round;stroke-dasharray:none;fill-opacity:1;stroke-opacity:1"
         id="path1-22"
         sodipodi:type="arc"
         sodipodi:cx="41.380424"
         sodipodi:cy="41.380402"
         sodipodi:rx="37.670212"
         sodipodi:ry="37.670212"
         sodipodi:start="1.017258"
         sodipodi:end="1.0159081"
         sodipodi:open="true"
         sodipodi:arc-type="arc"
         d="M 61.183672,73.425311 A 37.670212,37.670212 0 0 1 9.3421997,61.194463 37.670212,37.670212 0 0 1 21.555553,9.3488654 37.670212,37.670212 0 0 1 73.405268,21.544721 37.670212,37.670212 0 0 1 61.226912,73.39855" />
    </g>
    <g
       id="g4"
       style="fill:#ffffff"
       transform="translate(4.80685,15.53796)">
      <path
         style="fill:#ffffff;stroke:none;stroke-width:1px;stroke-linecap:butt;stroke-linejoin:miter;stroke-opacity:1"
         d="m 187.17499,240.48461 64.11647,-37.18078 63.87213,37.1856 -64.4069,37.20559 z"
         id="path4"
         sodipodi:nodetypes="ccccc" />
      <path
         style="fill:#ffffff;stroke:#000000;stroke-width:4.5;stroke-linecap:round;stroke-linejoin:miter;stroke-dasharray:none;stroke-opacity:1"
         d="m 187.65564,240.61608 c 5.5792,10.5642 22.00083,36.48157 63.52825,36.48157"
         id="path2"
         sodipodi:nodetypes="cc" />
      <use
         x="0"
         y="0"
         xlink:href="#path2"
         id="use2"
         transform="rotate(180,251.19315,240.46204)"
         style="fill:#ffffff" />
      <use
         x="0"
         y="0"
         xlink:href="#path2"
         id="use3"
         transform="matrix(-1,0,0,1,502.3863,0)"
         style="fill:#ffffff" />
      <use
         x="0"
         y="0"
         xlink:href="#path2"
         id="use4"
         transform="matrix(1,0,0,-1,0,480.92409)"
         style="fill:#ffffff" />
      <path
         style="fill:#000000;fill-opacity:1;fill-rule:evenodd;stroke:none;stroke-width:1.26184;stroke-linecap:round;stroke-dasharray:none;stroke-opacity:1"
         id="path5"
         sodipodi:type="arc"
         sodipodi:cx="250.44102"
         sodipodi:cy="240.4628"
         sodipodi:rx="16.901068"
         sodipodi:ry="37.006264"
         sodipodi:start="0"
         sodipodi:end="6.2829869"
         sodipodi:arc-type="arc"
         d="m 267.34209,240.4628 a 16.901068,37.006264 0 0 1 -16.90023,37.00626 16.901068,37.006264 0 0 1 -16.9019,-37.00259 16.901068,37.006264 0 0 1 16.89855,-37.00993 16.901068,37.006264 0 0 1 16.90358,36.99892"
         sodipodi:open="true" />
    </g>
  </g>
</svg>
